<?xml version="1.0" standalone="no"?>
<!DOCTYPE svg PUBLIC "-//W3C//DTD SVG 20010904//EN"
 "http://www.w3.org/TR/2001/REC-SVG-20010904/DTD/svg10.dtd">
<svg version="1.0" xmlns="http://www.w3.org/2000/svg"
 width="3508.000000pt" height="2480.000000pt" viewBox="0 0 3508.000000 2480.000000"
 preserveAspectRatio="xMidYMid meet">

<g transform="translate(0.000000,2480.000000) scale(0.100000,-0.100000)"
fill="#000000" stroke="none">
<path d="M17819 10966 c-22 -52 -769 -2020 -769 -2028 0 -4 22 -8 49 -8 37 0
50 4 56 18 3 9 162 424 352 922 190 498 347 909 350 914 3 4 164 -410 358
-920 l353 -929 51 -3 c28 -2 51 1 51 5 0 4 -175 467 -388 1028 l-388 1019 -33
2 c-25 1 -35 -3 -42 -20z"/>
<path d="M20760 9960 l0 -1030 45 0 45 0 0 975 0 975 1401 0 1400 0 -3 53 -3
52 -1442 2 -1443 3 0 -1030z"/>
<path d="M11590 8640 l0 -2300 45 0 45 0 2 1203 c2 661 2 1696 0 2300 l-3
1097 -44 0 -45 0 0 -2300z"/>
<path d="M14870 9936 l0 -1006 50 0 50 0 -2 1003 -3 1002 -47 3 -48 3 0 -1005z"/>
<path d="M14190 8615 l0 -275 65 0 65 0 0 135 c0 131 1 137 25 160 25 26 50
31 74 16 20 -13 30 -82 31 -203 l0 -108 61 0 61 0 -4 163 c-3 136 -7 168 -22
191 -33 51 -112 69 -188 42 l-38 -14 0 84 0 84 -65 0 -65 0 0 -275z"/>
<path d="M15360 8840 l0 -50 55 0 55 0 0 50 0 50 -55 0 -55 0 0 -50z"/>
<path d="M16313 8850 c-50 -29 -53 -33 -53 -70 0 -36 -3 -40 -25 -40 -23 0
-25 -4 -25 -45 0 -41 2 -45 25 -45 l25 0 0 -129 c0 -123 1 -131 24 -158 22
-26 30 -28 94 -28 39 0 73 3 77 6 3 4 3 25 -1 48 -6 38 -8 41 -38 38 l-31 -2
-3 113 -3 112 36 0 c35 0 35 0 35 45 0 45 0 45 -35 45 l-35 0 0 70 c0 39 -3
70 -7 70 -5 0 -32 -14 -60 -30z"/>
<path d="M19483 8850 c-50 -29 -53 -33 -53 -70 0 -36 -3 -40 -25 -40 -23 0
-25 -4 -25 -45 0 -41 2 -45 25 -45 l25 0 0 -129 c0 -123 1 -131 24 -158 22
-26 30 -28 94 -28 39 0 73 3 77 6 3 4 3 25 -1 48 -6 38 -8 41 -38 38 l-31 -2
-3 113 -3 112 36 0 c35 0 35 0 35 45 0 45 0 45 -35 45 l-35 0 0 70 c0 39 -3
70 -7 70 -5 0 -32 -14 -60 -30z"/>
<path d="M12056 8740 c-35 -11 -64 -36 -82 -72 -21 -41 -18 -45 37 -52 46 -6
52 -5 70 19 24 29 69 34 94 9 29 -30 14 -48 -50 -62 -103 -23 -144 -41 -160
-72 -20 -38 -19 -100 1 -129 36 -50 131 -66 197 -32 32 16 39 17 44 5 4 -10
22 -14 65 -14 54 0 59 2 52 18 -4 9 -10 85 -14 167 -4 83 -10 158 -15 168 -4
10 -22 25 -39 34 -36 19 -157 27 -200 13z m109 -297 c-29 -25 -47 -28 -76 -13
-42 23 -16 56 52 68 39 7 44 6 47 -12 3 -13 -6 -29 -23 -43z"/>
<path d="M13177 8736 c-79 -29 -112 -86 -112 -196 0 -123 50 -191 152 -206
104 -15 179 21 215 104 11 24 18 45 16 46 -1 2 -28 6 -59 9 l-55 7 -17 -35
c-18 -39 -53 -53 -87 -35 -29 15 -40 50 -40 121 0 50 4 64 25 84 13 14 32 25
42 25 25 0 63 -28 63 -46 0 -13 10 -14 58 -8 31 3 59 8 62 11 10 10 -43 91
-72 107 -40 24 -142 31 -191 12z"/>
<path d="M17296 8740 c-38 -12 -85 -57 -102 -97 -22 -50 -18 -168 7 -219 31
-66 77 -89 171 -89 62 0 82 4 105 21 27 20 73 79 73 94 0 4 -25 10 -56 14 -52
6 -58 4 -80 -19 -13 -14 -32 -25 -44 -25 -25 0 -70 46 -70 71 0 18 10 19 131
19 l131 0 -7 53 c-9 72 -43 138 -83 160 -37 22 -133 31 -176 17z m106 -94 c10
-7 22 -25 27 -39 l11 -27 -70 0 c-79 0 -89 12 -45 55 27 28 51 31 77 11z"/>
<path d="M18407 8736 c-79 -29 -112 -86 -112 -196 0 -123 50 -191 152 -206
104 -15 179 21 215 104 11 24 18 45 16 46 -1 2 -28 6 -59 9 l-55 7 -17 -35
c-18 -39 -53 -53 -87 -35 -29 15 -40 50 -40 121 0 50 4 64 25 84 13 14 32 25
42 25 25 0 63 -28 63 -46 0 -13 10 -14 58 -8 31 3 59 8 62 11 10 10 -43 91
-72 107 -40 24 -142 31 -191 12z"/>
<path d="M21661 8734 c-17 -13 -26 -14 -29 -6 -2 7 -25 12 -58 12 l-54 0 0
-200 0 -200 59 0 59 0 4 124 c5 153 18 181 78 171 l38 -6 16 47 c19 56 14 65
-46 71 -31 3 -50 -1 -67 -13z"/>
<path d="M22596 8740 c-38 -12 -85 -57 -102 -97 -22 -50 -18 -168 7 -219 31
-66 77 -89 171 -89 62 0 82 4 105 21 27 20 73 79 73 94 0 4 -25 10 -56 14 -52
6 -58 4 -80 -19 -13 -14 -32 -25 -44 -25 -25 0 -70 46 -70 71 0 18 10 19 131
19 l131 0 -7 53 c-9 72 -43 138 -83 160 -37 22 -133 31 -176 17z m106 -94 c10
-7 22 -25 27 -39 l11 -27 -70 0 c-79 0 -89 12 -45 55 27 28 51 31 77 11z"/>
<path d="M15360 8540 l0 -200 55 0 55 0 0 200 0 200 -55 0 -55 0 0 -200z"/>
<path d="M20361 8593 c0 -88 5 -162 12 -182 25 -72 116 -100 201 -63 37 17 46
18 46 6 0 -10 14 -14 55 -14 l55 0 0 200 0 200 -60 0 -60 0 0 -135 c0 -131 -1
-137 -25 -160 -25 -25 -50 -31 -73 -17 -22 15 -32 74 -32 194 l0 118 -60 0
-60 0 1 -147z"/>
<path d="M14870 7265 l0 -925 50 0 50 0 0 925 0 925 -50 0 -50 0 0 -925z"/>
<path d="M16742 8138 c-11 -29 -165 -433 -342 -898 -178 -465 -325 -853 -327
-862 -4 -12 7 -23 36 -38 l41 -21 9 23 c155 394 701 1827 701 1839 0 5 -22 9
-49 9 l-50 0 -19 -52z"/>
<path d="M18859 8168 c5 -13 23 -61 41 -108 18 -47 36 -89 40 -95 4 -5 22 -53
40 -105 17 -52 156 -418 307 -812 187 -487 280 -718 290 -718 24 0 75 31 70
43 -2 7 -158 418 -347 915 l-343 902 -53 0 c-51 0 -53 -1 -45 -22z"/>
<path d="M20760 7265 l0 -925 45 0 45 0 0 925 0 925 -45 0 -45 0 0 -925z"/>
</g>
</svg>
